<svg xmlns="http://www.w3.org/2000/svg" version="1.1" width="40" height="50" style="overflow: hidden; background: transparent; border: none;"><defs></defs><g id="two-8" transform="matrix(1 0 0 1 0 0)" opacity="1"><g id="two-15" transform="matrix(1 0 0 1 0 0)" opacity="1"><path transform="matrix(1 0 0 1 20 25)" id="two-9" d="M -15 -20 L 15 -20 L 15 20 L -15 20 Z " fill="transparent" stroke="#ffffff" stroke-width="3" stroke-opacity="1" fill-opacity="1" visibility="visible" stroke-linecap="butt" stroke-linejoin="miter" stroke-miterlimit="4"></path><path transform="matrix(1 0 0 1 17.5 11.5)" id="two-10" d="M -7.5 -1.5 L 7.5 -1.5 L 7.5 1.5 L -7.5 1.5 Z " fill="#fff" stroke="undefined" stroke-width="1" stroke-opacity="1" fill-opacity="1" visibility="visible" stroke-linecap="butt" stroke-linejoin="miter" stroke-miterlimit="4"></path><path transform="matrix(1 0 0 1 20 16.5)" id="two-11" d="M -10 -1.5 L 10 -1.5 L 10 1.5 L -10 1.5 Z " fill="#fff" stroke="undefined" stroke-width="1" stroke-opacity="1" fill-opacity="1" visibility="visible" stroke-linecap="butt" stroke-linejoin="miter" stroke-miterlimit="4"></path><path transform="matrix(1 0 0 1 20 21.5)" id="two-12" d="M -10 -1.5 L 10 -1.5 L 10 1.5 L -10 1.5 Z " fill="#fff" stroke="undefined" stroke-width="1" stroke-opacity="1" fill-opacity="1" visibility="visible" stroke-linecap="butt" stroke-linejoin="miter" stroke-miterlimit="4"></path><path transform="matrix(1 0 0 1 20 26.5)" id="two-13" d="M -10 -1.5 L 10 -1.5 L 10 1.5 L -10 1.5 Z " fill="#fff" stroke="undefined" stroke-width="1" stroke-opacity="1" fill-opacity="1" visibility="visible" stroke-linecap="butt" stroke-linejoin="miter" stroke-miterlimit="4"></path><path transform="matrix(1 0 0 1 15 36.5)" id="two-14" d="M -5 -1.5 L 5 -1.5 L 5 1.5 L -5 1.5 Z " fill="#fff" stroke="undefined" stroke-width="1" stroke-opacity="1" fill-opacity="1" visibility="visible" stroke-linecap="butt" stroke-linejoin="miter" stroke-miterlimit="4"></path></g></g></svg>
